<svg xmlns="http://www.w3.org/2000/svg" viewBox="0 0 64 64"><title>Artboard-39</title><g id="Paper_Plane" data-name="Paper Plane"><polygon points="1 21 15.46 32.46 15 58 29.46 44.46 40 55 63 6 1 21" style="fill:#48acff"/><polygon points="63 6 23.54 38.54 15 58 15.46 32.46 63 6" style="fill:#337fef"/><polygon points="29.46 44.46 15 58 23.54 38.54 29.46 44.46" style="fill:#185bd1"/><path d="M63.9951,6.0447A1.0037,1.0037,0,0,0,62.7684,5.03l-62,15a1,1,0,0,0-.3857,1.7559L14.4586,32.942l-.4549,25.0409a1.004,1.004,0,0,0,1.6836.748L29.438,45.85l9.8587,9.8587a1,1,0,0,0,.707.293,1.0392,1.0392,0,0,0,.1729-.0146,1.0027,1.0027,0,0,0,.7324-.5606l23-49A1.8953,1.8953,0,0,0,63.9951,6.0447ZM22.9041,37.7661c-.0084.0069-.0118.0178-.02.025a.9957.9957,0,0,0-.15.1887.9821.9821,0,0,0-.094.1339c-.0041.0086-.012.0137-.0158.0225L16.0946,53.0248l.3626-19.9656L53.8891,12.22ZM56.1,8.7006,15.5653,31.2661,3.2313,21.4916ZM17.877,53.94l5.9909-13.66,4.1555,4.1555Zm21.8269-.6524L25.0252,38.6088,60.2088,9.601Z" style="fill:#231e23"/></g></svg>